<?xml version="1.0" encoding="UTF-8" standalone="no"?>
<!-- Created with Inkscape (http://www.inkscape.org/) -->

<svg
   xmlns:dc="http://purl.org/dc/elements/1.1/"
   xmlns:cc="http://creativecommons.org/ns#"
   xmlns:rdf="http://www.w3.org/1999/02/22-rdf-syntax-ns#"
   xmlns:svg="http://www.w3.org/2000/svg"
   xmlns="http://www.w3.org/2000/svg"
   xmlns:sodipodi="http://sodipodi.sourceforge.net/DTD/sodipodi-0.dtd"
   xmlns:inkscape="http://www.inkscape.org/namespaces/inkscape"
   width="259.72977mm"
   height="51.568924mm"
   viewBox="0 0 920.30276 182.72454"
   id="svg2"
   version="1.1"
   inkscape:version="0.91 r13725"
   sodipodi:docname="blog.svg">
  <defs
     id="defs4" />
  <sodipodi:namedview
     id="base"
     pagecolor="#ffffff"
     bordercolor="#666666"
     borderopacity="1.0"
     inkscape:pageopacity="0.0"
     inkscape:pageshadow="2"
     inkscape:zoom="0.35"
     inkscape:cx="-183.21038"
     inkscape:cy="129.5993"
     inkscape:document-units="px"
     inkscape:current-layer="layer1"
     showgrid="false"
     fit-margin-top="0"
     fit-margin-left="0"
     fit-margin-right="0"
     fit-margin-bottom="0"
     inkscape:window-width="1440"
     inkscape:window-height="804"
     inkscape:window-x="0"
     inkscape:window-y="541"
     inkscape:window-maximized="1" />
  <metadata
     id="metadata7">
    <rdf:RDF>
      <cc:Work
         rdf:about="">
        <dc:format>image/svg+xml</dc:format>
        <dc:type
           rdf:resource="http://purl.org/dc/dcmitype/StillImage" />
        <dc:title></dc:title>
      </cc:Work>
    </rdf:RDF>
  </metadata>
  <g
     inkscape:label="Layer 1"
     inkscape:groupmode="layer"
     id="layer1"
     transform="translate(-102.49609,-136.37982)">
    <flowRoot
       xml:space="preserve"
       id="flowRoot4136"
       style="font-style:normal;font-weight:normal;font-size:180px;line-height:125%;font-family:sans-serif;letter-spacing:0px;word-spacing:0px;fill:#000000;fill-opacity:1;stroke:none;stroke-width:1px;stroke-linecap:butt;stroke-linejoin:miter;stroke-opacity:1"><flowRegion
         id="flowRegion4138"><rect
           id="rect4140"
           width="648.57141"
           height="180"
           x="31.428572"
           y="72.362206" /></flowRegion><flowPara
         id="flowPara4142">././aaa</flowPara></flowRoot>    <flowRoot
       xml:space="preserve"
       id="flowRoot4144"
       style="font-style:normal;font-weight:normal;font-size:180px;line-height:125%;font-family:sans-serif;letter-spacing:0px;word-spacing:0px;fill:#000000;fill-opacity:1;stroke:none;stroke-width:1px;stroke-linecap:butt;stroke-linejoin:miter;stroke-opacity:1"><flowRegion
         id="flowRegion4146"><rect
           id="rect4148"
           width="614.28571"
           height="200"
           x="51.42857"
           y="143.79077" /></flowRegion><flowPara
         id="flowPara4150"></flowPara></flowRoot>    <g
       style="font-style:normal;font-weight:normal;font-size:180px;line-height:125%;font-family:sans-serif;letter-spacing:0px;word-spacing:0px;fill:#000000;fill-opacity:1;stroke:none;stroke-width:1px;stroke-linecap:butt;stroke-linejoin:miter;stroke-opacity:1"
       id="flowRoot4152">
      <path
         sodipodi:type="inkscape:offset"
         inkscape:radius="0"
         inkscape:original="M 291.46094 136.37891 L 291.46094 278.23438 L 307.80859 278.23438 C 309.68359 278.41015 311.08984 278.55663 312.02734 278.67383 C 318.35547 279.31835 323.04297 279.64062 326.08984 279.64062 C 336.8125 279.64062 345.80664 277.0625 353.07227 271.90625 C 360.33789 266.6914 366.13867 259.63086 370.47461 250.72461 C 374.86914 241.75976 377.06641 231.59375 377.06641 220.22656 C 377.06641 205.8125 373.78516 195.06055 367.22266 187.9707 C 360.66016 180.88086 353.27735 177.33594 345.07422 177.33594 C 339.21485 177.33594 332.79883 179.41602 325.82617 183.57617 C 318.85352 187.73633 312.84766 193.91797 307.80859 202.12109 L 307.80859 136.37891 L 291.46094 136.37891 z M 397.63281 136.37891 L 397.63281 150.08984 L 426.98828 150.08984 L 426.98828 278.23438 L 474.00977 278.23438 L 474.00977 264.61133 L 443.33594 264.61133 L 443.33594 136.37891 L 397.63281 136.37891 z M 940.97266 136.37891 L 940.97266 278.23438 L 957.32031 278.23438 L 957.32031 221.01758 C 961.59766 212.81445 967.01758 205.98828 973.58008 200.53906 C 980.20117 195.08984 986.38281 192.36523 992.125 192.36523 C 994.99609 192.36523 997.63278 193.33203 1000.0352 195.26562 C 1002.4961 197.19922 1004.1661 199.68945 1005.0449 202.73633 C 1005.9825 205.72461 1006.4512 211.93555 1006.4512 221.36914 L 1006.4512 278.23438 L 1022.7988 278.23438 L 1022.7988 223.39062 C 1022.7988 212.49219 1022.5351 205.31446 1022.0078 201.85742 C 1021.4805 198.3418 1020.4844 195.03125 1019.0195 191.92578 C 1017.2031 187.88281 1013.9804 184.45508 1009.3516 181.64258 C 1004.7812 178.77148 999.7129 177.33594 994.14648 177.33594 C 987.52539 177.33594 980.9043 179.47461 974.2832 183.75195 C 967.66211 188.0293 962.00781 193.94727 957.32031 201.50586 L 957.32031 136.37891 L 940.97266 136.37891 z M 260.78711 137.78516 L 174.03906 282.36523 L 190.12305 282.36523 L 276.34375 137.78516 L 260.78711 137.78516 z M 549.33203 177.33594 C 535.26953 177.33594 524.01953 182.22852 515.58203 192.01367 C 507.14453 201.79883 502.92578 214.16211 502.92578 229.10352 C 502.92578 244.04492 507.14453 256.4375 515.58203 266.28125 C 524.01953 276.0664 535.26953 280.95898 549.33203 280.95898 C 563.33594 280.95898 574.55664 276.0664 582.99414 266.28125 C 591.43164 256.4375 595.65039 244.04492 595.65039 229.10352 C 595.65039 214.16211 591.43164 201.79883 582.99414 192.01367 C 574.55664 182.22852 563.33594 177.33594 549.33203 177.33594 z M 876.98828 177.33594 C 862.98437 177.33594 852.84766 179.94336 846.57812 185.1582 C 840.36719 190.37305 837.26172 197.02344 837.26172 205.10938 C 837.26172 210.85156 838.87305 215.71484 842.0957 219.69922 C 845.25977 223.74219 852.93555 228.13672 865.12305 232.88281 L 876.46094 237.36523 L 882.08594 239.65039 C 888.82422 242.4043 893.04297 244.71875 894.74219 246.59375 C 896.44141 248.46875 897.29102 250.72461 897.29102 253.36133 C 897.29102 257.3457 895.47461 260.68555 891.8418 263.38086 C 888.20898 266.01758 882.26172 267.33594 874 267.33594 C 868.90235 267.33594 862.69141 266.48633 855.36719 264.78711 C 848.04297 263.0293 841.09961 260.01172 834.53711 255.73438 L 834.53711 273.04883 C 847.7793 278.32226 860.66992 280.95898 873.20898 280.95898 C 887.56446 280.95898 897.99414 278.23438 904.49805 272.78516 C 911.06055 267.27735 914.3418 260.2754 914.3418 251.7793 C 914.3418 245.2754 912.29102 239.85547 908.18945 235.51953 C 904.08789 231.18359 896.96875 227.16992 886.83203 223.47852 L 875.75781 219.43555 C 868.19922 216.68165 862.75 214.25001 859.41016 212.14062 C 856.01172 210.03125 854.3125 207.21875 854.3125 203.70312 C 854.3125 200.07031 856.24609 197.05273 860.11328 194.65039 C 864.03906 192.18945 869.45898 190.95898 876.37305 190.95898 C 885.86523 190.95898 896.00196 192.89258 906.7832 196.75977 L 906.7832 181.90625 C 897.4082 178.85938 887.47656 177.33594 876.98828 177.33594 z M 664.46875 178.6543 C 653.7461 178.6543 644.75195 181.26172 637.48633 186.47656 C 630.2207 191.63282 624.41992 198.69336 620.08398 207.6582 C 615.74805 216.56446 613.58008 226.70117 613.58008 238.06836 C 613.58008 252.48242 616.83203 263.23437 623.33594 270.32422 C 629.89844 277.41406 637.28125 280.95898 645.48438 280.95898 C 651.34375 280.95898 657.75977 278.8789 664.73242 274.71875 C 671.76368 270.55859 677.76953 264.37695 682.75 256.17383 L 682.75 270.06055 C 682.75 276.62305 682.25195 281.86718 681.25586 285.79297 C 680.25977 289.77734 678.38477 293.26367 675.63086 296.25195 C 672.87695 299.24023 669.27344 301.52539 664.82031 303.10742 C 660.36719 304.68946 655.65039 305.48047 650.66992 305.48047 C 644.3418 305.48047 637.7793 304.25 630.98242 301.78906 C 624.24414 299.38672 618.56055 296.60351 613.93164 293.43945 L 613.93164 309.96289 C 626.11914 316.05664 638.16015 319.10352 650.05469 319.10352 C 661.89062 319.10352 671.96875 316.58398 680.28906 311.54492 C 688.66797 306.50586 694.02929 299.6211 696.37305 290.89062 C 697.36914 287.14062 698.07227 283.41992 698.48242 279.72852 C 698.95118 276.0957 699.18555 266.01757 699.18555 249.49414 L 699.18555 180.06055 L 682.75 180.06055 C 680.875 179.88477 679.46875 179.73828 678.53125 179.62109 C 672.26172 178.97656 667.57422 178.6543 664.46875 178.6543 z M 549.33203 190.95898 C 558.0625 190.95898 565.00586 194.35742 570.16211 201.1543 C 575.31836 207.95118 577.89648 217.26758 577.89648 229.10352 C 577.89648 240.99805 575.31836 250.34375 570.16211 257.14062 C 565.00586 263.9375 558.0625 267.33594 549.33203 267.33594 C 540.54297 267.33594 533.57032 263.9375 528.41406 257.14062 C 523.25782 250.34375 520.67969 240.99805 520.67969 229.10352 C 520.67969 217.26758 523.25782 207.95118 528.41406 201.1543 C 533.57032 194.35742 540.54297 190.95898 549.33203 190.95898 z M 666.57812 192.36523 C 671.5586 192.36523 676.94922 193.12695 682.75 194.65039 L 682.75 236.75 C 677.88672 245.48047 672.37891 252.42382 666.22656 257.58008 C 660.07422 262.73632 654.44922 265.31445 649.35156 265.31445 C 644.66406 265.31445 640.47461 262.85351 636.7832 257.93164 C 633.15039 252.95117 631.33398 245.59766 631.33398 235.87109 C 631.33398 222.45313 634.67382 211.84765 641.35352 204.05469 C 648.0918 196.26171 656.5 192.36523 666.57812 192.36523 z M 341.20703 192.98047 C 345.89453 192.98047 350.08398 195.44141 353.77539 200.36328 C 357.4668 205.28515 359.3125 212.63867 359.3125 222.42383 C 359.3125 235.90039 355.91406 246.53516 349.11719 254.32812 C 342.37891 262.06251 334.0586 265.92969 324.15625 265.92969 C 319.17578 265.92969 313.72657 265.16797 307.80859 263.64453 L 307.80859 221.54492 C 312.73047 212.81446 318.23828 205.8711 324.33203 200.71484 C 330.48438 195.5586 336.10938 192.98047 341.20703 192.98047 z M 116.82227 253.71289 C 112.95507 253.71289 109.58594 255.11914 106.71484 257.93164 C 103.90234 260.68555 102.49609 264.05469 102.49609 268.03906 C 102.49609 271.96484 103.90234 275.33398 106.71484 278.14648 C 109.52734 280.95898 112.89648 282.36523 116.82227 282.36523 C 120.74805 282.36523 124.11719 280.95898 126.92969 278.14648 C 129.74219 275.33398 131.14844 271.96484 131.14844 268.03906 C 131.14844 264.05469 129.71289 260.68555 126.8418 257.93164 C 124.0293 255.11914 120.68945 253.71289 116.82227 253.71289 z M 765.45508 253.71289 C 761.58789 253.71289 758.21875 255.11914 755.34766 257.93164 C 752.53516 260.68555 751.12891 264.05469 751.12891 268.03906 C 751.12891 271.96484 752.53516 275.33398 755.34766 278.14648 C 758.16016 280.95898 761.5293 282.36523 765.45508 282.36523 C 769.38086 282.36523 772.75 280.95898 775.5625 278.14648 C 778.375 275.33398 779.78125 271.96484 779.78125 268.03906 C 779.78125 264.05469 778.3457 260.68555 775.47461 257.93164 C 772.66211 255.11914 769.32226 253.71289 765.45508 253.71289 z "
         style="font-style:normal;font-variant:normal;font-weight:normal;font-stretch:normal;font-family:Monaco;-inkscape-font-specification:Monaco"
         id="path4180"
         d="m 291.46094,136.37891 0,141.85547 16.34765,0 c 1.875,0.17577 3.28125,0.32225 4.21875,0.43945 6.32813,0.64452 11.01563,0.96679 14.0625,0.96679 10.72266,0 19.7168,-2.57812 26.98243,-7.73437 7.26562,-5.21485 13.0664,-12.27539 17.40234,-21.18164 4.39453,-8.96485 6.5918,-19.13086 6.5918,-30.49805 0,-14.41406 -3.28125,-25.16601 -9.84375,-32.25586 -6.5625,-7.08984 -13.94531,-10.63476 -22.14844,-10.63476 -5.85937,0 -12.27539,2.08008 -19.24805,6.24023 -6.97265,4.16016 -12.97851,10.3418 -18.01758,18.54492 l 0,-65.74218 -16.34765,0 z m 106.17187,0 0,13.71093 29.35547,0 0,128.14454 47.02149,0 0,-13.62305 -30.67383,0 0,-128.23242 -45.70313,0 z m 543.33985,0 0,141.85547 16.34765,0 0,-57.2168 c 4.27735,-8.20313 9.69727,-15.0293 16.25977,-20.47852 6.62109,-5.44922 12.80273,-8.17383 18.54492,-8.17383 2.87109,0 5.50778,0.9668 7.9102,2.90039 2.4609,1.9336 4.1309,4.42383 5.0097,7.47071 0.9376,2.98828 1.4063,9.19922 1.4063,18.63281 l 0,56.86524 16.3476,0 0,-54.84376 c 0,-10.89843 -0.2637,-18.07616 -0.791,-21.5332 -0.5273,-3.51562 -1.5234,-6.82617 -2.9883,-9.93164 -1.8164,-4.04297 -5.0391,-7.4707 -9.6679,-10.2832 -4.5704,-2.8711 -9.6387,-4.30664 -15.20512,-4.30664 -6.62109,0 -13.24218,2.13867 -19.86328,6.41601 -6.62109,4.27735 -12.27539,10.19532 -16.96289,17.75391 l 0,-65.12695 -16.34765,0 z m -680.18555,1.40625 -86.74805,144.58007 16.08399,0 86.2207,-144.58007 -15.55664,0 z m 288.54492,39.55078 c -14.0625,0 -25.3125,4.89258 -33.75,14.67773 -8.4375,9.78516 -12.65625,22.14844 -12.65625,37.08985 0,14.9414 4.21875,27.33398 12.65625,37.17773 8.4375,9.78515 19.6875,14.67773 33.75,14.67773 14.00391,0 25.22461,-4.89258 33.66211,-14.67773 8.4375,-9.84375 12.65625,-22.23633 12.65625,-37.17773 0,-14.94141 -4.21875,-27.30469 -12.65625,-37.08985 -8.4375,-9.78515 -19.6582,-14.67773 -33.66211,-14.67773 z m 327.65625,0 c -14.00391,0 -24.14062,2.60742 -30.41016,7.82226 -6.21093,5.21485 -9.3164,11.86524 -9.3164,19.95118 0,5.74218 1.61133,10.60546 4.83398,14.58984 3.16407,4.04297 10.83985,8.4375 23.02735,13.18359 l 11.33789,4.48242 5.625,2.28516 c 6.73828,2.75391 10.95703,5.06836 12.65625,6.94336 1.69922,1.875 2.54883,4.13086 2.54883,6.76758 0,3.98437 -1.81641,7.32422 -5.44922,10.01953 -3.63282,2.63672 -9.58008,3.95508 -17.8418,3.95508 -5.09765,0 -11.30859,-0.84961 -18.63281,-2.54883 -7.32422,-1.75781 -14.26758,-4.77539 -20.83008,-9.05273 l 0,17.31445 c 13.24219,5.27343 26.13281,7.91015 38.67187,7.91015 14.35548,0 24.78516,-2.7246 31.28907,-8.17382 6.5625,-5.50781 9.84375,-12.50976 9.84375,-21.00586 0,-6.5039 -2.05078,-11.92383 -6.15235,-16.25977 -4.10156,-4.33594 -11.2207,-8.34961 -21.35742,-12.04101 l -11.07422,-4.04297 c -7.55859,-2.7539 -13.00781,-5.18554 -16.34765,-7.29493 -3.39844,-2.10937 -5.09766,-4.92187 -5.09766,-8.4375 0,-3.63281 1.93359,-6.65039 5.80078,-9.05273 3.92578,-2.46094 9.3457,-3.69141 16.25977,-3.69141 9.49218,0 19.62891,1.9336 30.41015,5.80079 l 0,-14.85352 c -9.375,-3.04687 -19.30664,-4.57031 -29.79492,-4.57031 z m -212.51953,1.31836 c -10.72265,0 -19.7168,2.60742 -26.98242,7.82226 -7.26563,5.15626 -13.06641,12.2168 -17.40235,21.18164 -4.33593,8.90626 -6.5039,19.04297 -6.5039,30.41016 0,14.41406 3.25195,25.16601 9.75586,32.25586 6.5625,7.08984 13.94531,10.63476 22.14844,10.63476 5.85937,0 12.27539,-2.08008 19.24804,-6.24023 7.03126,-4.16016 13.03711,-10.3418 18.01758,-18.54492 l 0,13.88672 c 0,6.5625 -0.49805,11.80663 -1.49414,15.73242 -0.99609,3.98437 -2.87109,7.4707 -5.625,10.45898 -2.75391,2.98828 -6.35742,5.27344 -10.81055,6.85547 -4.45312,1.58204 -9.16992,2.37305 -14.15039,2.37305 -6.32812,0 -12.89062,-1.23047 -19.6875,-3.69141 -6.73828,-2.40234 -12.42187,-5.18555 -17.05078,-8.34961 l 0,16.52344 c 12.1875,6.09375 24.22851,9.14063 36.12305,9.14063 11.83593,0 21.91406,-2.51954 30.23437,-7.5586 8.37891,-5.03906 13.74023,-11.92382 16.08399,-20.6543 0.99609,-3.75 1.69922,-7.4707 2.10937,-11.1621 0.46876,-3.63282 0.70313,-13.71095 0.70313,-30.23438 l 0,-69.43359 -16.43555,0 c -1.875,-0.17578 -3.28125,-0.32227 -4.21875,-0.43946 -6.26953,-0.64453 -10.95703,-0.96679 -14.0625,-0.96679 z m -115.13672,12.30468 c 8.73047,0 15.67383,3.39844 20.83008,10.19532 5.15625,6.79688 7.73437,16.11328 7.73437,27.94922 0,11.89453 -2.57812,21.24023 -7.73437,28.0371 -5.15625,6.79688 -12.09961,10.19532 -20.83008,10.19532 -8.78906,0 -15.76171,-3.39844 -20.91797,-10.19532 -5.15624,-6.79687 -7.73437,-16.14257 -7.73437,-28.0371 0,-11.83594 2.57813,-21.15234 7.73437,-27.94922 5.15626,-6.79688 12.12891,-10.19532 20.91797,-10.19532 z m 117.24609,1.40625 c 4.98048,0 10.3711,0.76172 16.17188,2.28516 l 0,42.09961 c -4.86328,8.73047 -10.37109,15.67382 -16.52344,20.83008 -6.15234,5.15624 -11.77734,7.73437 -16.875,7.73437 -4.6875,0 -8.87695,-2.46094 -12.56836,-7.38281 -3.63281,-4.98047 -5.44922,-12.33398 -5.44922,-22.06055 0,-13.41796 3.33984,-24.02344 10.01954,-31.8164 6.73828,-7.79298 15.14648,-11.68946 25.2246,-11.68946 z m -325.37109,0.61524 c 4.6875,0 8.87695,2.46094 12.56836,7.38281 3.69141,4.92187 5.53711,12.27539 5.53711,22.06055 0,13.47656 -3.39844,24.11133 -10.19531,31.90429 -6.73828,7.73439 -15.05859,11.60157 -24.96094,11.60157 -4.98047,0 -10.42968,-0.76172 -16.34766,-2.28516 l 0,-42.09961 c 4.92188,-8.73046 10.42969,-15.67382 16.52344,-20.83008 6.15235,-5.15624 11.77735,-7.73437 16.875,-7.73437 z m -224.38476,60.73242 c -3.8672,0 -7.23633,1.40625 -10.10743,4.21875 -2.8125,2.75391 -4.21875,6.12305 -4.21875,10.10742 0,3.92578 1.40625,7.29492 4.21875,10.10742 2.8125,2.8125 6.18164,4.21875 10.10743,4.21875 3.92578,0 7.29492,-1.40625 10.10742,-4.21875 2.8125,-2.8125 4.21875,-6.18164 4.21875,-10.10742 0,-3.98437 -1.43555,-7.35351 -4.30664,-10.10742 -2.8125,-2.8125 -6.15235,-4.21875 -10.01953,-4.21875 z m 648.63281,0 c -3.86719,0 -7.23633,1.40625 -10.10742,4.21875 -2.8125,2.75391 -4.21875,6.12305 -4.21875,10.10742 0,3.92578 1.40625,7.29492 4.21875,10.10742 2.8125,2.8125 6.18164,4.21875 10.10742,4.21875 3.92578,0 7.29492,-1.40625 10.10742,-4.21875 2.8125,-2.8125 4.21875,-6.18164 4.21875,-10.10742 0,-3.98437 -1.43555,-7.35351 -4.30664,-10.10742 -2.8125,-2.8125 -6.15235,-4.21875 -10.01953,-4.21875 z" />
    </g>
  </g>
</svg>
