<?xml version="1.0" encoding="UTF-8" standalone="no"?>
<!-- Created with Inkscape (http://www.inkscape.org/) -->

<svg
   xmlns:dc="http://purl.org/dc/elements/1.1/"
   xmlns:cc="http://creativecommons.org/ns#"
   xmlns:rdf="http://www.w3.org/1999/02/22-rdf-syntax-ns#"
   xmlns:svg="http://www.w3.org/2000/svg"
   xmlns="http://www.w3.org/2000/svg"
   xmlns:sodipodi="http://sodipodi.sourceforge.net/DTD/sodipodi-0.dtd"
   xmlns:inkscape="http://www.inkscape.org/namespaces/inkscape"
   width="199.79309mm"
   height="96.441803mm"
   viewBox="0 0 707.92827 341.72292"
   id="svg4192"
   version="1.1"
   inkscape:version="0.91 r13725"
   sodipodi:docname="eof.svg">
  <defs
     id="defs4194" />
  <sodipodi:namedview
     id="base"
     pagecolor="#ffffff"
     bordercolor="#666666"
     borderopacity="1.0"
     inkscape:pageopacity="0.0"
     inkscape:pageshadow="2"
     inkscape:zoom="0.35"
     inkscape:cx="-107.12835"
     inkscape:cy="-149.99865"
     inkscape:document-units="px"
     inkscape:current-layer="layer1"
     showgrid="false"
     fit-margin-top="0"
     fit-margin-left="0"
     fit-margin-right="0"
     fit-margin-bottom="0"
     inkscape:window-width="1440"
     inkscape:window-height="804"
     inkscape:window-x="2"
     inkscape:window-y="539"
     inkscape:window-maximized="0" />
  <metadata
     id="metadata4197">
    <rdf:RDF>
      <cc:Work
         rdf:about="">
        <dc:format>image/svg+xml</dc:format>
        <dc:type
           rdf:resource="http://purl.org/dc/dcmitype/StillImage" />
        <dc:title></dc:title>
      </cc:Work>
    </rdf:RDF>
  </metadata>
  <g
     inkscape:label="Layer 1"
     inkscape:groupmode="layer"
     id="layer1"
     transform="translate(-26.414062,-40.640624)">
    <g
       style="font-style:normal;font-weight:normal;font-size:180px;line-height:125%;font-family:sans-serif;letter-spacing:0px;word-spacing:0px;fill:#000000;fill-opacity:1;stroke:none;stroke-width:1px;stroke-linecap:butt;stroke-linejoin:miter;stroke-opacity:1"
       id="flowRoot4740"
       transform="matrix(2.4108503,0,0,2.3635548,-37.266287,-55.41572)">
      <path
         sodipodi:type="inkscape:offset"
         inkscape:radius="0"
         inkscape:original="M 170.81836 40.640625 C 155.34961 40.640625 143.51367 47.173828 135.31055 60.240234 C 127.16601 73.248047 123.09375 90.796873 123.09375 112.88672 C 123.09375 135.03515 127.16601 152.64258 135.31055 165.70898 C 143.51367 178.7168 155.34961 185.2207 170.81836 185.2207 C 186.3457 185.2207 198.18164 178.7168 206.32617 165.70898 C 214.47071 152.64258 218.54297 135.03515 218.54297 112.88672 C 218.54297 90.796873 214.47071 73.248047 206.32617 60.240234 C 198.18164 47.173828 186.3457 40.640625 170.81836 40.640625 z M 26.414062 44.683594 L 26.414062 181.08984 L 100.06641 181.08984 L 100.06641 166.06055 L 44.167969 166.06055 L 44.167969 118.33594 L 93.210938 118.33594 L 93.210938 104.71289 L 44.167969 104.71289 L 44.167969 58.394531 L 98.660156 58.394531 L 98.660156 44.683594 L 26.414062 44.683594 z M 245.08594 44.683594 L 245.08594 181.08984 L 262.83984 181.08984 L 262.83984 118.33594 L 314.60742 118.33594 L 314.60742 104.71289 L 262.83984 104.71289 L 262.83984 58.394531 L 320.05664 58.394531 L 320.05664 44.683594 L 245.08594 44.683594 z M 170.81836 54.263672 C 179.37305 54.263672 186.49219 59.126953 192.17578 68.853516 C 197.91797 78.521484 200.78906 93.199216 200.78906 112.88672 C 200.78906 132.57422 197.91797 147.28125 192.17578 157.00781 C 186.49219 166.67578 179.37305 171.50977 170.81836 171.50977 C 162.26367 171.50977 155.11523 166.67578 149.37305 157.00781 C 143.68945 147.28125 140.84766 132.57422 140.84766 112.88672 C 140.84766 93.199216 143.68945 78.521484 149.37305 68.853516 C 155.11523 59.126953 162.26367 54.263672 170.81836 54.263672 z "
         style="font-style:normal;font-variant:normal;font-weight:normal;font-stretch:normal;font-family:Monaco;-inkscape-font-specification:Monaco"
         id="path4756"
         d="m 170.81836,40.640625 c -15.46875,0 -27.30469,6.533203 -35.50781,19.599609 -8.14454,13.007813 -12.2168,30.556639 -12.2168,52.646486 0,22.14843 4.07226,39.75586 12.2168,52.82226 8.20312,13.00782 20.03906,19.51172 35.50781,19.51172 15.52734,0 27.36328,-6.5039 35.50781,-19.51172 8.14454,-13.0664 12.2168,-30.67383 12.2168,-52.82226 0,-22.089847 -4.07226,-39.638673 -12.2168,-52.646486 C 198.18164,47.173828 186.3457,40.640625 170.81836,40.640625 Z m -144.404298,4.042969 0,136.406246 73.652348,0 0,-15.02929 -55.898441,0 0,-47.72461 49.042969,0 0,-13.62305 -49.042969,0 0,-46.318359 54.492187,0 0,-13.710937 -72.246094,0 z m 218.671878,0 0,136.406246 17.7539,0 0,-62.7539 51.76758,0 0,-13.62305 -51.76758,0 0,-46.318359 57.2168,0 0,-13.710937 -74.9707,0 z m -74.26758,9.580078 c 8.55469,0 15.67383,4.863281 21.35742,14.589844 5.74219,9.667968 8.61328,24.3457 8.61328,44.033204 0,19.6875 -2.87109,34.39453 -8.61328,44.12109 -5.68359,9.66797 -12.80273,14.50196 -21.35742,14.50196 -8.55469,0 -15.70313,-4.83399 -21.44531,-14.50196 -5.6836,-9.72656 -8.52539,-24.43359 -8.52539,-44.12109 0,-19.687504 2.84179,-34.365236 8.52539,-44.033204 5.74218,-9.726563 12.89062,-14.589844 21.44531,-14.589844 z" />
    </g>
  </g>
</svg>
